<?xml version="1.0" encoding="utf-8"?>
<!-- Generator: Adobe Illustrator 27.1.1, SVG Export Plug-In . SVG Version: 6.00 Build 0)  -->
<svg version="1.1" id="Capa_1" xmlns="http://www.w3.org/2000/svg" xmlns:xlink="http://www.w3.org/1999/xlink" x="0px" y="0px"
	 viewBox="0 0 80 80" style="enable-background:new 0 0 80 80;" xml:space="preserve">
<style type="text/css">
	.st0{fill:#044E65;}
	.st1{fill:#87C27A;}
	.st2{fill:#00A5CF;}
	.st3{fill:#22A08D;}
	.st4{fill:#FFFFFF;}
</style>
<g>
	<g>
		<g>
			<path class="st0" d="M71.4,43.9c0-19.1-14.3-34.7-31.8-34.7C22.1,9.2,7.9,24.7,7.9,43.9c0,12.2,5.8,23,14.5,29.1
				c0.2-1.1-0.2-2.3-1.1-3.1C13.9,63.7,9.6,54.2,9.6,43.9C9.6,25.8,23.1,11,39.6,11c16.6,0,30.1,14.7,30.1,32.8
				c0,10.3-4.3,19.8-11.7,26c-0.9,0.7-1.3,2-1.1,3.1C65.6,66.8,71.4,56.1,71.4,43.9z"/>
			<path class="st0" d="M39.6,4.8C19.9,4.8,3.8,22.3,3.8,43.9c0,12.3,5.1,23.6,14,31c0.5,0.4,1.1,0.7,1.8,0.7c0.9,0,1.7-0.4,2.3-1.2
				c0.2-0.3,0.4-0.7,0.5-1.1C13.5,67.1,7.6,56.2,7.6,43.9c0-19.3,14.4-35,32-35c17.7,0,32,15.7,32,35c0,12.3-5.9,23.2-14.7,29.4
				c0.1,0.4,0.3,0.7,0.5,1.1c1,1.4,2.8,1.6,4,0.6c8.9-7.5,14-18.8,14-31C75.5,22.3,59.4,4.8,39.6,4.8z"/>
		</g>
		<g>
			<path class="st1" d="M12.5,58c-1.9-4.4-2.9-9.1-2.9-14.1C9.6,25.8,23.1,11,39.6,11c3.4,0,6.8,0.6,10,1.9c1.1,0.4,2.2,0.1,2.9-0.7
				c-4-1.9-8.3-3-12.9-3C22.1,9.2,7.9,24.7,7.9,43.9c0,6.3,1.6,12.2,4.3,17.3C12.8,60.3,13,59.1,12.5,58z"/>
			<path class="st1" d="M7.6,43.9c0-19.3,14.4-35,32-35c4.7,0,9.1,1.1,13.1,3.1c0.2-0.3,0.4-0.6,0.5-1c0.5-1.6-0.3-3.4-1.8-4
				c-3.8-1.5-7.8-2.2-11.9-2.2C19.9,4.8,3.8,22.3,3.8,43.9c0,5.9,1.2,11.5,3.5,16.8c0.5,1.1,1.5,1.8,2.6,1.8c0.4,0,0.8-0.1,1.2-0.3
				c0.3-0.2,0.6-0.4,0.9-0.7C9.2,56.3,7.6,50.3,7.6,43.9z"/>
		</g>
		<g>
			<path class="st2" d="M41.5,9.2c0.3,1.1,1.2,2,2.3,2.1c14.7,2.2,25.9,16.2,25.9,32.5c0,1.2,0.7,2.3,1.6,2.8
				c0.1-0.9,0.1-1.9,0.1-2.8C71.4,25.4,58.2,10.3,41.5,9.2z"/>
			<path class="st2" d="M44.6,5.1c-1.6-0.2-3,1-3.2,2.7c-0.1,0.4,0,0.8,0.1,1.2c16.8,1,30.2,16.3,30.2,34.9c0,1,0,2-0.1,2.9
				c0.3,0.1,0.7,0.2,1,0.2c1.6,0,2.9-1.4,2.9-3.1C75.5,24.5,62.2,7.8,44.6,5.1z"/>
		</g>
	</g>
	<g>
		<g>
			<polygon class="st1" points="25.1,29 39.6,37.8 39.6,44.7 25.1,35.3 			"/>
		</g>
		<g>
			<polygon class="st0" points="54.2,29 39.6,37.8 39.6,44.7 54.2,35.3 			"/>
		</g>
		<g>
			<polygon class="st1" points="25.1,39.1 39.6,47.9 39.6,54.8 25.1,45.4 			"/>
		</g>
		<g>
			<polygon class="st0" points="54.2,39.1 39.6,47.9 39.6,54.8 54.2,45.4 			"/>
		</g>
		<g>
			<polygon class="st1" points="25.1,49.2 39.6,58 39.6,64.9 25.1,55.5 			"/>
		</g>
		<g>
			<polygon class="st0" points="54.2,49.2 39.6,58 39.6,64.9 54.2,55.5 			"/>
		</g>
		<g>
			<polygon class="st1" points="25.1,59.3 39.6,68.1 39.6,75 25.1,65.6 			"/>
		</g>
		<g>
			<polygon class="st0" points="54.2,59.3 39.6,68.1 39.6,75 54.2,65.6 			"/>
		</g>
		<g>
			<polygon class="st3" points="39.6,19 27.4,27 39.6,34.9 51.9,27 			"/>
		</g>
	</g>
	<path class="st4" d="M39.6,8.9c-17.7,0-32,15.7-32,35c0,12.3,5.9,23.2,14.7,29.4l0.1-0.3C13.7,66.8,7.9,56.1,7.9,43.9
		c0-19.1,14.3-34.7,31.8-34.7c17.5,0,31.8,15.6,31.8,34.7c0,12.2-5.8,22.9-14.5,29.1l0.1,0.3c8.8-6.2,14.7-17.1,14.7-29.4
		C71.7,24.6,57.3,8.9,39.6,8.9z"/>
</g>
</svg>
