<?xml version="1.0" encoding="utf-8"?>
<!-- Generator: Adobe Illustrator 27.1.1, SVG Export Plug-In . SVG Version: 6.00 Build 0)  -->
<svg version="1.1" id="Capa_1" xmlns="http://www.w3.org/2000/svg" xmlns:xlink="http://www.w3.org/1999/xlink" x="0px" y="0px"
	 viewBox="0 0 685.5 768" style="enable-background:new 0 0 685.5 768;" xml:space="preserve">
<style type="text/css">
	.st0{fill:#00202B;}
	.st1{fill:#044E65;}
	.st2{fill:#87C27A;}
	.st3{fill:#00A5CF;}
	.st4{fill:#22A08D;}
	.st5{fill:#FFFFFF;}
</style>
<g>
	<g>
		<path class="st0" d="M107.1,633.9c-4.6-3.4-7.8-8.2-9.7-14.3l12.1-4.8c1,3.6,2.6,6.5,4.9,8.7c2.3,2.2,5.2,3.3,8.6,3.3
			c2.9,0,5.3-0.7,7.4-2.2c2-1.4,3.1-3.4,3.1-6s-1-4.6-2.9-6.3c-1.9-1.6-5.4-3.4-10.4-5.2l-4.2-1.5c-4.4-1.5-8.2-3.9-11.3-7
			c-3.1-3.2-4.7-7.1-4.7-11.9c0-3.6,0.9-6.8,2.8-9.7c1.8-2.9,4.5-5.2,7.8-6.9c3.4-1.7,7.2-2.5,11.5-2.5c6.2,0,11.1,1.4,14.6,4.3
			s6,6.3,7.4,10.2l-11.4,4.8c-0.7-2.1-1.9-3.9-3.7-5.3c-1.8-1.4-4-2.2-6.7-2.2c-2.8,0-5.1,0.7-6.9,2c-1.8,1.3-2.7,3-2.7,5.1
			c0,2,0.9,3.8,2.6,5.2c1.7,1.4,4.6,2.8,8.5,4.2l4.3,1.4c5.9,2,10.5,4.7,13.6,8.1c3.2,3.3,4.7,7.7,4.7,13.1c0,4.5-1.1,8.2-3.4,11.3
			c-2.3,3.1-5.2,5.4-8.8,6.9c-3.6,1.5-7.3,2.3-11.1,2.3C117,638.9,111.7,637.2,107.1,633.9z"/>
		<path class="st0" d="M157.7,569h43.4v12.2h-30.5v15.9H198v12.2h-27.4v15.9h30.5v12.2h-43.4V569z"/>
		<path class="st0" d="M213.4,569h24.9c4.5,0,8.4,0.9,11.9,2.8c3.5,1.8,6.2,4.4,8.1,7.7c1.9,3.3,2.9,7,2.9,11.1
			c0,4.4-1.4,8.3-4.2,11.7c-2.8,3.4-6.3,5.9-10.5,7.4l-0.1,0.7l18.4,26.3v0.8H250l-17.7-25.7h-6v25.7h-12.9V569z M238.3,599.8
			c2.9,0,5.3-0.9,7.2-2.7c1.8-1.8,2.8-4,2.8-6.8c0-2.6-0.9-4.8-2.6-6.7c-1.8-1.8-4.1-2.8-7.1-2.8h-12.1v18.9H238.3z"/>
		<path class="st0" d="M266.6,569h14l14.1,41.3l2.5,8.7h0.8l2.7-8.7l14.7-41.3h14l-24.9,68.4h-13.6L266.6,569z"/>
		<path class="st0" d="M337.5,569h12.9v68.4h-12.9V569z"/>
		<path class="st0" d="M378.3,634.2c-5.5-3.2-9.8-7.5-13-12.9c-3.2-5.4-4.7-11.5-4.7-18.1s1.6-12.7,4.7-18.1
			c3.2-5.4,7.5-9.7,13-12.9c5.5-3.2,11.5-4.7,18.2-4.7c10.3,0,18.9,3.7,25.6,11.2l-9.1,8.8c-4.4-5.2-9.9-7.7-16.4-7.7
			c-4.3,0-8.2,1-11.7,2.9c-3.5,1.9-6.3,4.7-8.3,8.3c-2,3.6-3,7.7-3,12.3s1,8.8,3,12.3c2,3.6,4.8,6.3,8.3,8.3
			c3.5,1.9,7.4,2.9,11.7,2.9c7.2,0,13.2-3,18.1-9l9.2,8.7c-3.4,4.1-7.4,7.2-12,9.3c-4.6,2.1-9.7,3.2-15.3,3.2
			C389.8,638.9,383.8,637.3,378.3,634.2z"/>
		<path class="st0" d="M434.8,569h12.9v68.4h-12.9V569z"/>
		<path class="st0" d="M475.5,634.2c-5.4-3.2-9.7-7.5-12.9-13c-3.1-5.5-4.7-11.5-4.7-18.1s1.6-12.6,4.7-18.1
			c3.1-5.5,7.4-9.8,12.9-13c5.4-3.2,11.5-4.7,18.2-4.7c6.7,0,12.8,1.6,18.2,4.7c5.4,3.2,9.7,7.5,12.9,13c3.1,5.5,4.7,11.5,4.7,18.1
			s-1.6,12.6-4.7,18.1c-3.1,5.5-7.4,9.8-12.9,13s-11.5,4.7-18.2,4.7C487,638.9,480.9,637.3,475.5,634.2z M505.2,623.7
			c3.5-2,6.3-4.7,8.3-8.3c2-3.6,3-7.6,3-12.2s-1-8.7-3-12.2c-2-3.6-4.8-6.3-8.3-8.3c-3.5-2-7.4-3-11.6-3c-4.2,0-8,1-11.5,3
			c-3.5,2-6.2,4.7-8.2,8.3c-2,3.6-3,7.6-3,12.2s1,8.7,3,12.2c2,3.6,4.7,6.3,8.2,8.3c3.5,2,7.3,3,11.5,3
			C497.9,626.7,501.7,625.7,505.2,623.7z"/>
		<path class="st0" d="M545.5,633.9c-4.6-3.4-7.8-8.2-9.7-14.3l12.1-4.8c1,3.6,2.6,6.5,4.9,8.7c2.3,2.2,5.2,3.3,8.6,3.3
			c2.9,0,5.3-0.7,7.4-2.2c2-1.4,3.1-3.4,3.1-6s-1-4.6-2.9-6.3c-1.9-1.6-5.4-3.4-10.4-5.2l-4.2-1.5c-4.4-1.5-8.2-3.9-11.3-7
			c-3.1-3.2-4.7-7.1-4.7-11.9c0-3.6,0.9-6.8,2.8-9.7c1.8-2.9,4.5-5.2,7.8-6.9c3.4-1.7,7.2-2.5,11.5-2.5c6.2,0,11.1,1.4,14.6,4.3
			c3.6,2.9,6,6.3,7.4,10.2l-11.4,4.8c-0.7-2.1-1.9-3.9-3.7-5.3s-4-2.2-6.7-2.2c-2.8,0-5.1,0.7-6.9,2c-1.8,1.3-2.7,3-2.7,5.1
			c0,2,0.9,3.8,2.6,5.2c1.7,1.4,4.6,2.8,8.5,4.2l4.3,1.4c5.9,2,10.5,4.7,13.6,8.1c3.2,3.3,4.7,7.7,4.7,13.1c0,4.5-1.1,8.2-3.4,11.3
			c-2.3,3.1-5.2,5.4-8.8,6.9s-7.3,2.3-11.1,2.3C555.4,638.9,550.1,637.2,545.5,633.9z"/>
		<path class="st0" d="M37.9,729.7c-4-2.3-7.1-5.6-9.3-9.9c-2.2-4.3-3.3-9.5-3.3-15.4v-41.2h12.8v42c0,4.7,1.2,8.5,3.6,11.4
			c2.4,2.9,5.8,4.4,10.2,4.4s7.8-1.5,10.2-4.4c2.4-2.9,3.6-6.7,3.6-11.4v-42h12.8v41.2c0,5.7-1.1,10.7-3.2,15
			c-2.2,4.3-5.3,7.7-9.3,10.1c-4,2.4-8.7,3.6-14.1,3.6S41.9,732,37.9,729.7z"/>
		<path class="st0" d="M91.9,663.2h24.9c4.5,0,8.4,0.9,11.9,2.8c3.5,1.8,6.2,4.4,8.1,7.7c1.9,3.3,2.9,7,2.9,11.1
			c0,4.4-1.4,8.3-4.2,11.7c-2.8,3.4-6.3,5.9-10.5,7.4l-0.1,0.7l18.4,26.3v0.8h-14.8l-17.7-25.7h-6v25.7H91.9V663.2z M116.8,694
			c2.9,0,5.3-0.9,7.2-2.7s2.8-4,2.8-6.8c0-2.6-0.9-4.8-2.6-6.7s-4.1-2.8-7.1-2.8h-12.1V694H116.8z"/>
		<path class="st0" d="M151.6,663.2h26.8c3.8,0,7.3,0.8,10.6,2.4c3.2,1.6,5.7,3.8,7.6,6.5c1.8,2.7,2.8,5.7,2.8,9
			c0,3.4-0.8,6.4-2.5,8.9c-1.7,2.5-3.9,4.4-6.6,5.8v0.8c3.6,1.3,6.4,3.3,8.5,6.1c2.1,2.8,3.2,6.1,3.2,10c0,3.8-1,7.1-3,10
			c-2,2.9-4.7,5.1-8.1,6.7c-3.4,1.6-7.2,2.3-11.3,2.3h-27.7V663.2z M177.4,691.1c2.8,0,5.1-0.8,6.7-2.3c1.7-1.6,2.5-3.5,2.5-5.9
			c0-2.3-0.8-4.2-2.4-5.8c-1.6-1.6-3.8-2.3-6.5-2.3h-13.3v16.3H177.4z M178.8,719.9c3.1,0,5.6-0.8,7.3-2.4c1.8-1.6,2.6-3.7,2.6-6.4
			s-0.9-4.7-2.7-6.4c-1.8-1.7-4.3-2.5-7.6-2.5h-14v17.7H178.8z"/>
		<path class="st0" d="M230.7,663.2h14.8l25.7,68.4H257l-5.7-16.3h-26.2l-5.7,16.3h-14.2L230.7,663.2z M247.1,703.4l-6-17.2
			l-2.5-8.2h-0.8l-2.5,8.2l-6.1,17.2H247.1z"/>
		<path class="st0" d="M279.6,663.2h15l27.5,45.9h0.8l-0.8-13.2v-32.7h12.8v68.4h-13.6l-29.1-48.5h-0.8l0.8,13.2v35.3h-12.7V663.2z"
			/>
		<path class="st0" d="M362.7,728.4c-5.4-3.2-9.7-7.5-12.9-13c-3.1-5.5-4.7-11.5-4.7-18.1c0-6.6,1.6-12.6,4.7-18.1
			c3.1-5.5,7.4-9.8,12.9-13c5.4-3.2,11.5-4.7,18.2-4.7c6.7,0,12.8,1.6,18.2,4.7c5.4,3.2,9.7,7.5,12.9,13c3.1,5.5,4.7,11.5,4.7,18.1
			c0,6.6-1.6,12.6-4.7,18.1c-3.1,5.5-7.4,9.8-12.9,13s-11.5,4.7-18.2,4.7C374.2,733.1,368.1,731.6,362.7,728.4z M392.4,717.9
			c3.5-2,6.3-4.7,8.3-8.3c2-3.6,3-7.6,3-12.2s-1-8.7-3-12.2c-2-3.6-4.8-6.3-8.3-8.3c-3.5-2-7.4-3-11.6-3c-4.2,0-8,1-11.5,3
			c-3.5,2-6.2,4.7-8.2,8.3c-2,3.6-3,7.6-3,12.2s1,8.7,3,12.2c2,3.6,4.7,6.3,8.2,8.3c3.5,2,7.3,3,11.5,3
			C385.1,720.9,388.9,719.9,392.4,717.9z"/>
		<path class="st0" d="M432.7,728.1c-4.6-3.4-7.8-8.2-9.7-14.3l12.1-4.8c1,3.6,2.6,6.5,4.9,8.7c2.3,2.2,5.2,3.3,8.6,3.3
			c2.9,0,5.3-0.7,7.4-2.2c2-1.4,3.1-3.4,3.1-6c0-2.5-1-4.6-2.9-6.3c-1.9-1.6-5.4-3.4-10.4-5.2l-4.2-1.5c-4.4-1.5-8.2-3.9-11.3-7
			c-3.1-3.2-4.7-7.1-4.7-11.9c0-3.6,0.9-6.8,2.8-9.7c1.8-2.9,4.5-5.2,7.8-6.9c3.4-1.7,7.2-2.5,11.5-2.5c6.2,0,11.1,1.4,14.6,4.3
			c3.6,2.9,6,6.3,7.4,10.2l-11.4,4.8c-0.7-2.1-1.9-3.9-3.7-5.3c-1.8-1.4-4-2.2-6.7-2.2c-2.8,0-5.1,0.7-6.9,2c-1.8,1.3-2.7,3-2.7,5.1
			c0,2,0.9,3.8,2.6,5.2s4.6,2.8,8.5,4.2l4.3,1.4c5.9,2,10.5,4.7,13.6,8.1c3.2,3.3,4.7,7.7,4.7,13.1c0,4.5-1.1,8.2-3.4,11.3
			s-5.2,5.4-8.8,6.9c-3.6,1.5-7.3,2.3-11.1,2.3C442.6,733.1,437.3,731.5,432.7,728.1z"/>
		<path class="st0" d="M504.7,663.2h16.6l18.2,48.1h0.8l18.2-48.1h16.7v68.4h-12.8v-33.7l0.8-11.4h-0.8l-17.4,45.1h-10l-17.5-45.1
			h-0.8l0.8,11.4v33.7h-12.7V663.2z"/>
		<path class="st0" d="M589.7,729.7c-1.6-1.6-2.4-3.6-2.4-5.9s0.8-4.2,2.4-5.8c1.6-1.6,3.6-2.4,5.9-2.4s4.3,0.8,5.9,2.4
			c1.6,1.6,2.4,3.5,2.4,5.8s-0.8,4.3-2.4,5.9c-1.6,1.6-3.6,2.4-5.9,2.4S591.3,731.4,589.7,729.7z"/>
		<path class="st0" d="M616.1,663.2h43.4v12.2H629v15.9h27.4v12.2H629v15.9h30.5v12.2h-43.4V663.2z"/>
	</g>
	<g>
		<g>
			<g>
				<path class="st1" d="M584.6,310c0-134.1-109.1-243.3-243.3-243.3C207.2,66.7,98.1,175.8,98.1,310c0,85.5,44.4,160.9,111.4,204.3
					c1.5-7.9-1.3-16.3-8.1-21.6c-57.3-44-90.1-110.6-90.1-182.7c0-126.9,103.3-230.2,230.2-230.2c126.9,0,230.2,103.3,230.2,230.2
					c0,72-32.8,138.5-89.9,182.5c-6.8,5.2-9.6,13.7-8.1,21.6C540.3,470.7,584.6,395.4,584.6,310z"/>
				<path class="st1" d="M341.4,35.8c-151.2,0-274.2,123-274.2,274.2c0,85.9,39.1,165.2,107.3,217.6c4,3.1,8.7,4.6,13.4,4.6
					c6.6,0,13.1-3,17.5-8.6c1.7-2.3,2.9-4.8,3.7-7.4C141.3,472.5,96.2,396.4,96.2,310c0-135.2,110-245.1,245.1-245.1
					c135.2,0,245.1,110,245.1,245.1c0,86.3-44.9,162.3-112.6,206c0.7,2.6,1.9,5.1,3.7,7.4c7.4,9.6,21.2,11.4,30.9,4
					C576.5,475,615.6,395.8,615.6,310C615.6,158.8,492.6,35.8,341.4,35.8z"/>
			</g>
			<g>
				<path class="st2" d="M133.3,408.6c-14.7-30.9-22.1-64.1-22.1-98.6c0-126.9,103.3-230.2,230.2-230.2c26.2,0,52,4.4,76.5,13
					c8.1,2.9,16.7,0.6,22.5-5c-30.3-13.5-63.8-21.1-99-21.1C207.2,66.7,98.1,175.8,98.1,310c0,44.3,11.9,85.8,32.7,121.6
					C135.7,425.2,137,416.4,133.3,408.6z"/>
				<path class="st2" d="M96.2,310c0-135.2,110-245.1,245.1-245.1c35.8,0,69.7,7.8,100.4,21.6c1.8-2,3.2-4.4,4.2-7.1
					c4-11.5-2-24-13.5-28.1c-29.2-10.3-59.9-15.5-91.1-15.5c-151.2,0-274.2,123-274.2,274.2c0,41.1,8.9,80.7,26.4,117.6
					c3.8,7.9,11.7,12.6,19.9,12.6c3.2,0,6.4-0.7,9.4-2.1c2.6-1.2,4.8-2.9,6.6-4.9C108.4,396.9,96.2,354.8,96.2,310z"/>
			</g>
			<g>
				<path class="st3" d="M355.7,67.2c2.6,7.7,9.2,13.7,17.8,14.9c112.9,15.8,198,113.8,198,227.9c0,8.6,5,16,12.3,19.6
					c0.5-6.5,0.9-13,0.9-19.6C584.6,180.7,483.2,74.6,355.7,67.2z"/>
				<path class="st3" d="M379.6,38.4c-12-1.7-23.2,6.7-24.9,18.8c-0.4,2.8-0.2,5.5,0.4,8.1C483.9,72.5,586.5,179.5,586.5,310
					c0,6.9-0.4,13.7-0.9,20.5c2.5,1,5.2,1.6,8,1.6c12.2,0,22-9.9,22-22C615.6,173.9,514.1,57.2,379.6,38.4z"/>
			</g>
		</g>
		<g>
			<g>
				<polygon class="st2" points="230.2,205.8 341.4,267.6 341.4,315.7 230.2,250 				"/>
			</g>
			<g>
				<polygon class="st1" points="452.6,205.8 341.4,267.6 341.4,315.7 452.6,250 				"/>
			</g>
			<g>
				<polygon class="st2" points="230.2,276.5 341.4,338.3 341.4,386.4 230.2,320.8 				"/>
			</g>
			<g>
				<polygon class="st1" points="452.6,276.5 341.4,338.3 341.4,386.4 452.6,320.8 				"/>
			</g>
			<g>
				<polygon class="st2" points="230.2,347.2 341.4,409 341.4,457.1 230.2,391.5 				"/>
			</g>
			<g>
				<polygon class="st1" points="452.6,347.2 341.4,409 341.4,457.1 452.6,391.5 				"/>
			</g>
			<g>
				<polygon class="st2" points="230.2,418 341.4,479.8 341.4,527.9 230.2,462.2 				"/>
			</g>
			<g>
				<polygon class="st1" points="452.6,418 341.4,479.8 341.4,527.9 452.6,462.2 				"/>
			</g>
			<g>
				<polygon class="st4" points="341.4,135.7 247.3,191.4 341.4,246.9 435.5,191.4 				"/>
			</g>
		</g>
		<path class="st5" d="M341.4,64.9c-135.2,0-245.1,110-245.1,245.1c0,86.4,45,162.4,112.7,206.1l0.5-1.8
			C142.5,470.8,98.1,395.5,98.1,310c0-134.1,109.1-243.3,243.3-243.3c134.1,0,243.3,109.1,243.3,243.3
			c0,85.4-44.3,160.7-111.1,204.1l0.4,1.9c67.6-43.7,112.5-119.7,112.5-206C586.5,174.8,476.5,64.9,341.4,64.9z"/>
	</g>
</g>
</svg>
