<?xml version="1.0" encoding="utf-8"?>
<!-- Generator: Adobe Illustrator 27.1.1, SVG Export Plug-In . SVG Version: 6.00 Build 0)  -->
<svg version="1.1" id="Capa_1" xmlns="http://www.w3.org/2000/svg" xmlns:xlink="http://www.w3.org/1999/xlink" x="0px" y="0px"
	 viewBox="0 0 685.5 768" style="enable-background:new 0 0 685.5 768;" xml:space="preserve">
<style type="text/css">
	.st0{fill:#FFFFFF;}
</style>
<g>
	<path class="st0" d="M128.5,596.8l-4.3-1.4c-3.9-1.4-6.8-2.8-8.5-4.2c-1.7-1.4-2.6-3.2-2.6-5.2c0-2.1,0.9-3.8,2.7-5.1s4.1-2,6.9-2
		c2.7,0,4.9,0.8,6.7,2.2c1.8,1.4,3,3.2,3.7,5.3l11.4-4.8c-1.4-3.9-3.9-7.3-7.4-10.2s-8.4-4.3-14.6-4.3c-4.3,0-8.1,0.8-11.5,2.5
		c-3.3,1.7-6,4-7.8,6.9c-1.9,2.9-2.8,6.1-2.8,9.7c0,4.8,1.6,8.7,4.7,11.9c3.1,3.1,6.9,5.5,11.3,7l4.2,1.5c5,1.8,8.5,3.6,10.4,5.2
		c1.9,1.7,2.9,3.7,2.9,6.3s-1.1,4.6-3.1,6c-2.1,1.5-4.5,2.2-7.4,2.2c-3.4,0-6.3-1.1-8.6-3.3c-2.3-2.2-3.9-5.1-4.9-8.7l-12.1,4.8
		c1.9,6.1,5.1,10.9,9.7,14.3c4.6,3.3,9.9,5,16,5.1c3.8,0,7.5-0.8,11.1-2.3c3.6-1.5,6.5-3.8,8.8-6.9c2.3-3.1,3.4-6.8,3.4-11.3
		c0-5.4-1.5-9.8-4.7-13.1C139,601.5,134.4,598.8,128.5,596.8z"/>
	<polygon class="st0" points="201.5,580.7 201.5,568.5 158.1,568.5 158.1,636.9 201.5,636.9 201.5,624.7 171,624.7 171,608.8 
		198.4,608.8 198.4,596.6 171,596.6 171,580.7 	"/>
	<path class="st0" d="M257.4,601.8c2.8-3.4,4.2-7.3,4.2-11.7c0-4.1-1-7.8-2.9-11.1c-1.9-3.3-4.6-5.9-8.1-7.7
		c-3.5-1.9-7.4-2.8-11.9-2.8h-24.9V637h12.9v-25.7h6l17.7,25.7h14.8v-0.8l-18.4-26.3l0.1-0.7C251,607.7,254.5,605.2,257.4,601.8z
		 M245.9,596.6c-1.9,1.8-4.3,2.7-7.2,2.7v-0.1h-11.8v-18.9h12.1c3,0,5.3,1,7.1,2.8c1.7,1.9,2.6,4.1,2.6,6.7
		C248.6,592.6,247.6,594.8,245.9,596.6z"/>
	<polygon class="st0" points="298.4,618.5 297.5,618.5 295,609.8 281,568.5 267,568.5 291.3,636.9 304.9,636.9 329.8,568.5 
		315.8,568.5 301,609.8 	"/>
	<rect x="337.9" y="568.5" class="st0" width="12.9" height="68.4"/>
	<path class="st0" d="M415,617.3c-4.9,6-10.9,9-18.1,9c-4.3,0-8.2-1-11.7-2.9c-3.5-2-6.3-4.7-8.3-8.3c-2-3.5-3-7.7-3-12.3
		s1-8.7,3-12.3s4.8-6.4,8.3-8.3s7.4-2.9,11.7-2.9c6.5,0,12,2.5,16.4,7.7l9.1-8.8c-6.7-7.5-15.3-11.2-25.6-11.2
		c-6.7,0-12.7,1.5-18.2,4.7s-9.8,7.5-13,12.9c-3.1,5.4-4.7,11.5-4.7,18.1s1.5,12.7,4.7,18.1c3.2,5.4,7.5,9.7,13,12.9
		c5.5,3.1,11.5,4.7,18.3,4.8c5.6,0,10.7-1.1,15.3-3.2s8.6-5.2,12-9.3L415,617.3z"/>
	<rect x="435.2" y="568.5" class="st0" width="12.9" height="68.4"/>
	<path class="st0" d="M525.2,620.7c3.1-5.5,4.7-11.5,4.7-18.1s-1.6-12.6-4.7-18.1c-3.2-5.5-7.5-9.8-12.9-13
		c-5.4-3.1-11.5-4.7-18.2-4.7c-6.7,0-12.8,1.5-18.2,4.7c-5.5,3.2-9.8,7.5-12.9,13c-3.1,5.5-4.7,11.5-4.7,18.1s1.6,12.6,4.7,18.1
		c3.2,5.5,7.5,9.8,12.9,13c5.4,3.1,11.5,4.7,18.2,4.7s12.7-1.5,18.2-4.7C517.8,630.5,522.1,626.2,525.2,620.7z M505.5,623.2
		c-3.5,2-7.3,3-11.6,3c-4.2,0-8-1-11.5-3s-6.2-4.7-8.2-8.3c-2-3.5-3-7.6-3-12.2s1-8.6,3-12.2s4.7-6.3,8.2-8.3s7.3-3,11.5-3
		c4.2,0,8.1,1,11.6,3s6.3,4.7,8.3,8.3c2,3.5,3,7.6,3,12.2s-1,8.6-3,12.2C511.9,618.5,509,621.2,505.5,623.2z"/>
	<path class="st0" d="M566.8,596.8l-4.3-1.4c-3.9-1.4-6.8-2.8-8.5-4.2c-1.7-1.4-2.6-3.2-2.6-5.2c0-2.1,0.9-3.8,2.7-5.1s4.1-2,6.9-2
		c2.7,0,4.9,0.8,6.7,2.2c1.8,1.4,3,3.2,3.7,5.3l11.4-4.8c-1.4-3.9-3.8-7.3-7.4-10.2c-3.5-2.9-8.4-4.3-14.6-4.3
		c-4.3,0-8.1,0.8-11.5,2.5c-3.3,1.7-6,4-7.8,6.9c-1.9,2.9-2.8,6.1-2.8,9.7c0,4.8,1.6,8.7,4.7,11.9c3.1,3.1,6.9,5.5,11.3,7l4.2,1.5
		c5,1.8,8.5,3.6,10.4,5.2c1.9,1.7,2.9,3.7,2.9,6.3s-1.1,4.6-3.1,6c-2.1,1.5-4.5,2.2-7.4,2.2c-3.4,0-6.3-1.1-8.6-3.3
		c-2.3-2.2-3.9-5.1-4.9-8.7l-12.1,4.8c1.9,6.1,5.1,10.9,9.7,14.3c4.6,3.3,9.9,5,16,5.1c3.8,0,7.5-0.8,11.1-2.3s6.5-3.8,8.8-6.9
		c2.3-3.1,3.4-6.8,3.4-11.3c0-5.4-1.5-9.8-4.7-13.1C577.3,601.5,572.7,598.8,566.8,596.8z"/>
	<path class="st0" d="M66.1,704.7c0,4.7-1.2,8.5-3.6,11.4c-2.4,2.9-5.8,4.4-10.2,4.4c-4.4,0-7.8-1.5-10.2-4.4
		c-2.4-2.9-3.6-6.7-3.6-11.4v-42H25.6v41.2c0,5.9,1.1,11.1,3.3,15.4c2.2,4.3,5.3,7.6,9.3,9.9s8.6,3.4,14,3.4
		c5.4,0,10.1-1.2,14.1-3.6c4-2.4,7.1-5.8,9.3-10.1c2.1-4.3,3.2-9.3,3.2-15v-41.2H66.1V704.7z"/>
	<path class="st0" d="M125.4,703.4c4.2-1.5,7.7-4,10.5-7.4s4.2-7.3,4.2-11.7c0-4.1-1-7.8-2.9-11.1c-1.9-3.3-4.6-5.9-8.1-7.7
		c-3.5-1.9-7.4-2.8-11.9-2.8H92.3v68.5h12.9v-25.7h6l17.7,25.7h14.8v-0.8l-18.4-26.3L125.4,703.4z M117.1,693.5h-11.8v-19h12.1
		c3,0,5.4,0.9,7.1,2.8s2.6,4.1,2.6,6.7c0,2.8-0.9,5-2.8,6.8C122.5,692.6,120.1,693.5,117.1,693.5z"/>
	<path class="st0" d="M190.7,696.1v-0.8c2.7-1.4,4.9-3.3,6.6-5.8s2.5-5.5,2.5-8.9c0-3.3-1-6.3-2.8-9c-1.9-2.7-4.4-4.9-7.6-6.5
		c-3.3-1.6-6.8-2.4-10.6-2.4h-26.5v68.5H180c4.1,0,7.9-0.7,11.3-2.3c3.4-1.6,6.1-3.8,8.1-6.7s3-6.2,3-10c0-3.9-1.1-7.2-3.2-10
		C197.1,699.4,194.3,697.4,190.7,696.1z M164.8,674.3h13.3c2.7,0,4.9,0.7,6.5,2.3c1.6,1.6,2.4,3.5,2.4,5.8c0,2.4-0.8,4.3-2.5,5.9
		c-1.6,1.5-3.9,2.3-6.7,2.3h-13V674.3z M186.5,717c-1.7,1.6-4.2,2.4-7.3,2.4v0h-14.4v-17.7h14c3.3,0,5.8,0.8,7.6,2.5
		c1.8,1.7,2.7,3.7,2.7,6.4S188.3,715.4,186.5,717z"/>
	<path class="st0" d="M231.1,662.7l-25.5,68.4h14.2l5.7-16.3h26.2l5.7,16.3h14.2l-25.7-68.4H231.1z M229.6,702.9l6.1-17.2l2.5-8.2
		h0.8l2.5,8.2l6,17.2H229.6z"/>
	<polygon class="st0" points="322.5,695.4 323.3,708.6 322.5,708.6 295,662.7 280,662.7 279.9,662.7 279.9,731.1 292.5,731.1 
		292.5,695.8 291.8,682.6 292.5,682.6 321.7,731.1 335.3,731.1 335.3,662.7 322.5,662.7 	"/>
	<path class="st0" d="M399.5,665.7c-5.4-3.1-11.5-4.7-18.2-4.7s-12.8,1.5-18.2,4.7c-5.5,3.2-9.8,7.5-12.9,13
		c-3.1,5.5-4.7,11.5-4.7,18.1s1.6,12.6,4.7,18.1c3.2,5.5,7.5,9.8,12.9,13c5.4,3.2,11.5,4.7,18.2,4.7c6.7,0,12.7-1.5,18.2-4.7
		s9.8-7.5,12.9-13c3.1-5.5,4.7-11.5,4.7-18.1s-1.6-12.6-4.7-18.1C409.2,673.2,404.9,668.9,399.5,665.7z M401,709.1
		c-2,3.6-4.8,6.3-8.3,8.3s-7.3,3-11.6,3c-4.2,0-8-1-11.5-3s-6.2-4.7-8.2-8.3c-2-3.5-3-7.6-3-12.2s1-8.6,3-12.2s4.7-6.3,8.2-8.3
		s7.3-3,11.5-3c4.2,0,8.1,1,11.6,3s6.3,4.7,8.3,8.3c2,3.5,3,7.6,3,12.2S403,705.5,401,709.1z"/>
	<path class="st0" d="M454,691l-4.3-1.4c-3.9-1.4-6.8-2.8-8.5-4.2c-1.7-1.4-2.6-3.2-2.6-5.2c0-2.1,0.9-3.8,2.7-5.1s4.1-2,6.9-2
		c2.7,0,4.9,0.8,6.7,2.2c1.8,1.4,3,3.2,3.7,5.3l11.4-4.8c-1.4-3.9-3.8-7.3-7.4-10.2c-3.5-2.9-8.4-4.3-14.6-4.3
		c-4.3,0-8.1,0.8-11.5,2.5c-3.3,1.7-6,4-7.8,6.9c-1.9,2.9-2.8,6.1-2.8,9.7c0,4.8,1.6,8.7,4.7,11.9c3.1,3.1,6.9,5.5,11.3,7l4.2,1.5
		c5,1.8,8.5,3.6,10.4,5.2c1.9,1.7,2.9,3.8,2.9,6.3c0,2.6-1.1,4.6-3.1,6c-2.1,1.5-4.5,2.2-7.4,2.2c-3.4,0-6.3-1.1-8.6-3.3
		s-3.9-5.1-4.9-8.7l-12.1,4.8c1.9,6.1,5.1,10.9,9.7,14.3c4.6,3.4,9.9,5,16,5.1c3.8,0,7.5-0.8,11.1-2.3c3.6-1.5,6.5-3.8,8.8-6.9
		s3.4-6.8,3.4-11.3c0-5.4-1.5-9.8-4.7-13.1C464.5,695.7,459.9,693,454,691z"/>
	<polygon class="st0" points="540.7,710.8 539.8,710.8 521.7,662.7 505.2,662.7 505.2,731.1 517.8,731.1 517.8,697.4 517,686 
		517.8,686 535.3,731.1 545.3,731.1 562.8,686 563.5,686 562.8,697.4 562.8,731.1 575.5,731.1 575.5,662.7 558.8,662.7 	"/>
	<path class="st0" d="M596,715.1c-2.3,0-4.3,0.8-5.9,2.4c-1.6,1.6-2.4,3.5-2.4,5.8s0.8,4.3,2.4,5.9c1.6,1.7,3.6,2.4,5.9,2.4
		s4.3-0.8,5.9-2.4c1.6-1.6,2.4-3.6,2.4-5.9s-0.8-4.2-2.4-5.8C600.2,715.9,598.3,715.1,596,715.1z"/>
	<polygon class="st0" points="659.8,674.9 659.8,662.7 616.4,662.7 616.4,731.1 659.8,731.1 659.8,718.9 629.3,718.9 629.3,703 
		656.8,703 656.8,690.8 629.3,690.8 629.3,674.9 	"/>
	<path class="st0" d="M615.9,308.4c0-1.8,0-3.6-0.1-5.4c0-1.4-0.1-2.9-0.2-4.3c0-0.7,0-1.4-0.1-2.1c-0.1-1.9-0.2-3.7-0.3-5.6
		c0-0.2,0-0.4,0-0.6c-6.7-97.2-64.2-180.5-146.1-223.7c-0.5-0.3-1-0.5-1.5-0.8c-1-0.5-2.1-1.1-3.1-1.6c-1.1-0.5-2.1-1.1-3.2-1.6
		c-0.6-0.3-1.2-0.6-1.8-0.9c-1.6-0.7-3.1-1.5-4.7-2.2c-0.2-0.1-0.4-0.2-0.6-0.3C431,48.9,406.1,41.6,380,37.9
		c-0.6-0.1-1.1-0.1-1.7-0.2c-0.5-0.1-0.9-0.1-1.4-0.2c-0.1,0-0.2,0-0.3,0c-2.1-0.3-4.2-0.5-6.4-0.7c-0.7-0.1-1.5-0.1-2.3-0.2
		c-1.4-0.1-2.7-0.3-4.1-0.4c-0.9-0.1-1.8-0.1-2.7-0.2c-1.2-0.1-2.5-0.2-3.7-0.2c-0.9-0.1-1.9-0.1-2.8-0.1c-1.3-0.1-2.6-0.1-3.9-0.1
		c-0.8,0-1.7-0.1-2.5-0.1c-2,0-4-0.1-5.9-0.1c-0.2,0-0.3,0-0.5,0c0,0,0,0,0,0c0,0,0,0-0.1,0c-151.2,0-274.2,123-274.2,274.2
		c0,29,4.5,57.3,13.2,84.4c0.5,1.5,1,3.1,1.5,4.6c0.1,0.4,0.2,0.7,0.4,1.1c17.2,49.9,48.9,94.2,92.3,127.6c4,3.1,8.7,4.6,13.4,4.6
		c6.6,0,13.1-3,17.5-8.6c1.7-2.3,2.9-4.8,3.7-7.4c-46.5-29.9-82.2-75.1-100.2-128.3c-0.1-0.3-0.2-0.6-0.3-0.8
		c-0.2-0.7-0.5-1.4-0.7-2.1c-0.2-0.7-0.4-1.3-0.6-2c-0.1-0.4-0.3-0.8-0.4-1.2c-0.3-0.9-0.6-1.9-0.9-2.9c-0.1-0.2-0.1-0.4-0.2-0.5
		c-0.3-1.2-0.7-2.3-1-3.5c0,0,0,0,0,0c-3.5-12.9-6.1-26.2-7.4-39.8c0,0,0-0.1,0-0.1c-0.1-1.3-0.2-2.5-0.4-3.8c0-0.1,0-0.2,0-0.3
		c-0.1-1.2-0.2-2.4-0.3-3.6c0-0.2,0-0.4,0-0.6c-0.1-1.1-0.1-2.3-0.2-3.4c0-0.3,0-0.5,0-0.8c-0.1-1.1-0.1-2.1-0.1-3.2
		c0-0.3,0-0.6,0-1c0-1-0.1-2.1-0.1-3.1c0-0.3,0-0.7,0-1c0-1.4,0-2.8,0-4.1c0-135.2,110-245.1,245.1-245.1c2.2,0,4.4,0,6.5,0.1
		c0.5,0,1,0,1.4,0.1c1.7,0.1,3.4,0.1,5.2,0.2c0.2,0,0.4,0,0.7,0c0,0,0,0,0,0c3.4,0.2,6.7,0.5,10.1,0.8c0.7,0.1,1.4,0.1,2.1,0.2
		c0.8,0.1,1.7,0.2,2.5,0.3c1.4,0.2,2.7,0.3,4.1,0.5c0.5,0.1,1,0.1,1.4,0.2c1.8,0.2,3.5,0.5,5.2,0.8c0.2,0,0.3,0.1,0.5,0.1
		c21.3,3.5,41.6,9.8,60.7,18.4c0,0,0,0,0,0c1,0.5,2.1,0.9,3.1,1.4c0.4,0.2,0.8,0.4,1.2,0.6c1.3,0.6,2.6,1.2,3.8,1.9
		c0.5,0.3,1,0.5,1.5,0.8c1.2,0.6,2.3,1.2,3.5,1.8c0.6,0.3,1.2,0.6,1.8,1c1,0.6,2.1,1.1,3.1,1.7c0.7,0.4,1.4,0.8,2.1,1.2
		c0.9,0.5,1.8,1,2.7,1.6c0.8,0.5,1.6,1,2.4,1.4c0.8,0.5,1.6,1,2.4,1.4c0.9,0.6,1.8,1.1,2.8,1.7c0.7,0.4,1.3,0.9,2,1.3
		c1,0.7,2.1,1.4,3.1,2c0.5,0.4,1.1,0.7,1.6,1.1c1.2,0.8,2.3,1.6,3.5,2.4c0.4,0.3,0.8,0.5,1.2,0.8c1.3,0.9,2.6,1.9,3.9,2.8
		c0.2,0.2,0.4,0.3,0.7,0.5c1.5,1.1,2.9,2.2,4.4,3.4c0,0,0.1,0.1,0.1,0.1c57.1,44.9,93.8,114.6,93.8,192.7
		c0,86.3-44.9,162.3-112.6,206c0.7,2.6,1.9,5.1,3.7,7.4c7.4,9.6,21.2,11.4,30.9,4c68.1-52.4,107.2-131.5,107.2-217.3c0,0,0,0,0,0
		c0,0,0,0,0,0c0,0,0,0,0-0.1C615.9,309.1,615.9,308.8,615.9,308.4z"/>
	<path class="st0" d="M438.6,86.4c-1.1-0.5-2.1-0.9-3.2-1.4c-0.4-0.2-0.9-0.4-1.3-0.5c-1.6-0.7-3.2-1.3-4.8-1.9
		c-0.1,0-0.2-0.1-0.3-0.1c-11.5-4.5-23.5-8-35.8-10.7c-0.1,0-0.2,0-0.3-0.1c-1.9-0.4-3.8-0.8-5.6-1.1c-0.3,0-0.5-0.1-0.8-0.1
		c-1.7-0.3-3.5-0.6-5.2-0.9c-0.4-0.1-0.8-0.1-1.2-0.2c-1.6-0.3-3.2-0.5-4.7-0.7c-0.6-0.1-1.1-0.2-1.7-0.2c-1.4-0.2-2.8-0.4-4.3-0.5
		c-0.7-0.1-1.4-0.2-2.2-0.2c-1.3-0.1-2.5-0.2-3.8-0.4c-0.9-0.1-1.7-0.2-2.6-0.2c-1.1-0.1-2.3-0.2-3.4-0.2c-1-0.1-2-0.1-3-0.2
		c-1.1-0.1-2.2-0.1-3.3-0.1c-1,0-2.1-0.1-3.1-0.1c-1.5,0-3.1-0.1-4.7-0.1c-0.6,0-1.1,0-1.7,0c0,0,0,0-0.1,0s0,0,0,0
		c-125.7,0-229.5,95.9-241.9,218.5c-0.8,8.2-1.3,16.5-1.3,24.8c0,1.4,0,2.7,0,4.1c0,0.5,0,0.9,0,1.4c0,0.9,0,1.8,0.1,2.6
		c0,0.6,0,1.2,0.1,1.8c0,0.7,0.1,1.5,0.1,2.2c0,0.7,0.1,1.3,0.1,2c0,0.7,0.1,1.3,0.1,2c0,0.7,0.1,1.4,0.2,2.1c0,0.6,0.1,1.3,0.1,1.9
		c0.1,0.7,0.1,1.4,0.2,2.1c0.1,0.6,0.1,1.2,0.2,1.8c0.1,0.7,0.2,1.5,0.2,2.2c0.1,0.6,0.1,1.2,0.2,1.8c0.1,0.7,0.2,1.5,0.3,2.2
		c0.1,0.6,0.1,1.2,0.2,1.7c0.1,0.7,0.2,1.5,0.3,2.2c0.1,0.6,0.2,1.2,0.2,1.7c0.1,0.7,0.2,1.4,0.3,2.2c0.1,0.6,0.2,1.2,0.3,1.8
		c0.1,0.7,0.2,1.4,0.4,2.1c0.1,0.6,0.2,1.2,0.3,1.8c0.1,0.7,0.3,1.4,0.4,2c0.1,0.6,0.2,1.2,0.4,1.9c0.1,0.6,0.3,1.3,0.4,1.9
		c0.1,0.7,0.3,1.3,0.4,2c0.1,0.6,0.3,1.2,0.4,1.8c0.2,0.7,0.3,1.4,0.5,2.1c0.1,0.5,0.3,1.1,0.4,1.6c0.2,0.8,0.4,1.5,0.6,2.3
		c0.1,0.5,0.2,1,0.4,1.4c0.2,0.8,0.4,1.7,0.7,2.5c0.1,0.4,0.2,0.8,0.3,1.2c0.3,0.9,0.5,1.8,0.8,2.8c0.1,0.3,0.2,0.6,0.3,0.9
		c0.3,1,0.6,2.1,0.9,3.1c0.1,0.2,0.1,0.3,0.2,0.5c0.4,1.2,0.7,2.4,1.1,3.5c0,0,0,0,0,0.1c17.5,53.5,53,98.9,99.4,128.9
		c1.5-7.9-1.3-16.3-8.1-21.6c-29.7-22.8-52.7-51.6-68.1-84.1c-0.8-1.6-1.5-3.3-2.3-4.9c-0.3-0.7-0.6-1.3-0.9-2c-0.4-1-0.8-2-1.3-2.9
		c-0.6-1.5-1.2-2.9-1.8-4.4c-0.1-0.2-0.2-0.4-0.3-0.6c-10.2-26.3-15.6-54.5-15.6-83.7c0-126.9,103.3-230.2,230.2-230.2
		c0.2,0,0.3,0,0.5,0c1.6,0,3.2,0,4.8,0.1c0.8,0,1.6,0,2.4,0.1c1,0,2,0.1,3,0.1c0.9,0,1.8,0.1,2.7,0.1c0.8,0,1.7,0.1,2.5,0.2
		c1,0.1,2,0.1,2.9,0.2c0.7,0.1,1.5,0.1,2.2,0.2c1,0.1,2.1,0.2,3.1,0.3c0.5,0.1,1,0.1,1.6,0.2c1.6,0.2,3.1,0.4,4.6,0.6
		c0.5,0.1,1.1,0.2,1.6,0.3c112.9,15.8,198,113.8,198,227.9c0,0.9,0.1,1.7,0.2,2.6c-0.8,71-33.4,136.5-89.9,179.9
		c-6.8,5.2-9.6,13.7-8.1,21.6c62.9-41,105.8-110.3,110.5-189.8c0.3-4.7,0.5-9.5,0.5-14.3c0-62.9-24.1-120.3-63.4-163.5
		c0,0,0,0-0.1-0.1c-1.3-1.4-2.5-2.7-3.8-4.1c-0.3-0.3-0.6-0.6-0.9-0.9c-1-1.1-2-2.1-3.1-3.1c-0.5-0.5-1-1-1.5-1.4
		c-0.9-0.8-1.7-1.7-2.6-2.5c-0.6-0.6-1.3-1.2-1.9-1.8c-0.7-0.7-1.5-1.4-2.2-2.1c-0.8-0.7-1.5-1.4-2.3-2.1c-0.6-0.6-1.3-1.1-1.9-1.7
		c-0.9-0.8-1.7-1.5-2.6-2.2c-0.5-0.5-1.1-0.9-1.6-1.4c-1-0.8-2-1.6-2.9-2.4c-0.5-0.4-0.9-0.7-1.4-1.1c-1.1-0.9-2.2-1.7-3.2-2.5
		c-0.4-0.3-0.8-0.6-1.2-0.9c-1.2-0.9-2.4-1.8-3.6-2.6c-0.3-0.2-0.6-0.4-0.9-0.7c-1.3-0.9-2.6-1.8-3.9-2.8c-0.2-0.1-0.4-0.3-0.6-0.4
		c-1.4-1-2.8-1.9-4.2-2.8c-0.1-0.1-0.2-0.2-0.3-0.2c-1.5-1-3-2-4.6-2.9c0,0,0,0,0,0c-9.5-5.9-19.4-11.3-29.7-15.9c0,0,0,0,0,0
		C440,87,439.3,86.7,438.6,86.4z"/>
	<polygon class="st0" points="453,205.3 341.8,267.1 230.6,205.3 230.6,249.5 341.8,315.2 453,249.5 	"/>
	<polygon class="st0" points="453,276 341.8,337.8 230.6,276 230.6,320.3 341.8,385.9 453,320.3 	"/>
	<polygon class="st0" points="453,346.7 341.8,408.5 230.6,346.7 230.6,391 341.8,456.6 453,391 	"/>
	<polygon class="st0" points="453,417.5 341.8,479.3 230.6,417.5 230.6,461.7 341.8,527.4 453,461.7 	"/>
	<polygon class="st0" points="435.9,190.9 341.8,135.2 247.6,190.9 341.8,246.4 	"/>
</g>
</svg>
