<?xml version="1.0" encoding="utf-8"?>
<!-- Generator: Adobe Illustrator 27.1.1, SVG Export Plug-In . SVG Version: 6.00 Build 0)  -->
<svg version="1.1" id="Capa_1" xmlns="http://www.w3.org/2000/svg" xmlns:xlink="http://www.w3.org/1999/xlink" x="0px" y="0px"
	 viewBox="0 0 157 40" style="enable-background:new 0 0 157 40;" xml:space="preserve">
<style type="text/css">
	.st0{fill:#00202B;}
	.st1{fill:#044E65;}
	.st2{fill:#87C27A;}
	.st3{fill:#00A5CF;}
	.st4{fill:#22A08D;}
	.st5{fill:#FFFFFF;}
</style>
<g>
	<g>
		<path class="st0" d="M66.6,20.1c-0.7-0.5-1.2-1.2-1.4-2.1l1.8-0.7c0.1,0.5,0.4,1,0.7,1.3s0.8,0.5,1.3,0.5c0.4,0,0.8-0.1,1.1-0.3
			c0.3-0.2,0.5-0.5,0.5-0.9c0-0.4-0.1-0.7-0.4-0.9c-0.3-0.2-0.8-0.5-1.5-0.8l-0.6-0.2c-0.7-0.2-1.2-0.6-1.7-1
			c-0.5-0.5-0.7-1.1-0.7-1.8c0-0.5,0.1-1,0.4-1.4c0.3-0.4,0.7-0.8,1.2-1c0.5-0.3,1.1-0.4,1.7-0.4c0.9,0,1.6,0.2,2.2,0.6
			c0.5,0.4,0.9,0.9,1.1,1.5l-1.7,0.7c-0.1-0.3-0.3-0.6-0.5-0.8c-0.3-0.2-0.6-0.3-1-0.3c-0.4,0-0.8,0.1-1,0.3
			c-0.3,0.2-0.4,0.4-0.4,0.8c0,0.3,0.1,0.6,0.4,0.8c0.3,0.2,0.7,0.4,1.3,0.6l0.6,0.2c0.9,0.3,1.6,0.7,2,1.2c0.5,0.5,0.7,1.1,0.7,1.9
			c0,0.7-0.2,1.2-0.5,1.7s-0.8,0.8-1.3,1s-1.1,0.3-1.6,0.3C68,20.8,67.2,20.6,66.6,20.1z"/>
		<path class="st0" d="M74.1,10.5h6.4v1.8H76v2.4H80v1.8H76v2.4h4.5v1.8h-6.4L74.1,10.5L74.1,10.5z"/>
		<path class="st0" d="M82.3,10.5H86c0.7,0,1.2,0.1,1.8,0.4c0.5,0.3,0.9,0.7,1.2,1.1c0.3,0.5,0.4,1,0.4,1.6c0,0.7-0.2,1.2-0.6,1.7
			c-0.4,0.5-0.9,0.9-1.6,1.1l0,0.1l2.7,3.9v0.1h-2.2l-2.6-3.8h-0.9v3.8h-1.9L82.3,10.5L82.3,10.5z M86,15c0.4,0,0.8-0.1,1.1-0.4
			c0.3-0.3,0.4-0.6,0.4-1c0-0.4-0.1-0.7-0.4-1c-0.3-0.3-0.6-0.4-1.1-0.4h-1.8V15L86,15L86,15z"/>
		<path class="st0" d="M90.2,10.5h2.1l2.1,6.1l0.4,1.3h0.1l0.4-1.3l2.2-6.1h2.1l-3.7,10.1h-2L90.2,10.5z"/>
		<path class="st0" d="M100.7,10.5h1.9v10.1h-1.9V10.5z"/>
		<path class="st0" d="M106.8,20.1c-0.8-0.5-1.5-1.1-1.9-1.9c-0.5-0.8-0.7-1.7-0.7-2.7s0.2-1.9,0.7-2.7c0.5-0.8,1.1-1.4,1.9-1.9
			c0.8-0.5,1.7-0.7,2.7-0.7c1.5,0,2.8,0.5,3.8,1.7l-1.3,1.3c-0.7-0.8-1.5-1.1-2.4-1.1c-0.6,0-1.2,0.1-1.7,0.4s-0.9,0.7-1.2,1.2
			c-0.3,0.5-0.4,1.1-0.4,1.8c0,0.7,0.1,1.3,0.4,1.8c0.3,0.5,0.7,0.9,1.2,1.2c0.5,0.3,1.1,0.4,1.7,0.4c1.1,0,2-0.4,2.7-1.3l1.4,1.3
			c-0.5,0.6-1.1,1.1-1.8,1.4c-0.7,0.3-1.4,0.5-2.3,0.5C108.5,20.8,107.6,20.6,106.8,20.1z"/>
		<path class="st0" d="M115.1,10.5h1.9v10.1h-1.9V10.5z"/>
		<path class="st0" d="M121.2,20.1c-0.8-0.5-1.4-1.1-1.9-1.9c-0.5-0.8-0.7-1.7-0.7-2.7s0.2-1.9,0.7-2.7s1.1-1.5,1.9-1.9
			c0.8-0.5,1.7-0.7,2.7-0.7c1,0,1.9,0.2,2.7,0.7c0.8,0.5,1.4,1.1,1.9,1.9c0.5,0.8,0.7,1.7,0.7,2.7s-0.2,1.9-0.7,2.7
			s-1.1,1.5-1.9,1.9c-0.8,0.5-1.7,0.7-2.7,0.7S122,20.6,121.2,20.1z M125.6,18.6c0.5-0.3,0.9-0.7,1.2-1.2s0.4-1.1,0.4-1.8
			c0-0.7-0.1-1.3-0.4-1.8c-0.3-0.5-0.7-0.9-1.2-1.2c-0.5-0.3-1.1-0.4-1.7-0.4c-0.6,0-1.2,0.1-1.7,0.4c-0.5,0.3-0.9,0.7-1.2,1.2
			c-0.3,0.5-0.4,1.1-0.4,1.8c0,0.7,0.1,1.3,0.4,1.8c0.3,0.5,0.7,0.9,1.2,1.2c0.5,0.3,1.1,0.4,1.7,0.4C124.5,19,125,18.9,125.6,18.6z
			"/>
		<path class="st0" d="M131.5,20.1c-0.7-0.5-1.2-1.2-1.4-2.1l1.8-0.7c0.1,0.5,0.4,1,0.7,1.3s0.8,0.5,1.3,0.5c0.4,0,0.8-0.1,1.1-0.3
			c0.3-0.2,0.5-0.5,0.5-0.9c0-0.4-0.1-0.7-0.4-0.9c-0.3-0.2-0.8-0.5-1.5-0.8l-0.6-0.2c-0.7-0.2-1.2-0.6-1.7-1
			c-0.5-0.5-0.7-1.1-0.7-1.8c0-0.5,0.1-1,0.4-1.4c0.3-0.4,0.7-0.8,1.2-1c0.5-0.3,1.1-0.4,1.7-0.4c0.9,0,1.6,0.2,2.2,0.6
			c0.5,0.4,0.9,0.9,1.1,1.5l-1.7,0.7c-0.1-0.3-0.3-0.6-0.5-0.8s-0.6-0.3-1-0.3c-0.4,0-0.8,0.1-1,0.3c-0.3,0.2-0.4,0.4-0.4,0.8
			c0,0.3,0.1,0.6,0.4,0.8s0.7,0.4,1.3,0.6l0.6,0.2c0.9,0.3,1.6,0.7,2,1.2c0.5,0.5,0.7,1.1,0.7,1.9c0,0.7-0.2,1.2-0.5,1.7
			c-0.3,0.5-0.8,0.8-1.3,1s-1.1,0.3-1.6,0.3C133,20.8,132.2,20.6,131.5,20.1z"/>
		<path class="st0" d="M56.3,34.3c-0.6-0.3-1.1-0.8-1.4-1.5c-0.3-0.6-0.5-1.4-0.5-2.3v-6.1h1.9v6.2c0,0.7,0.2,1.3,0.5,1.7
			c0.4,0.4,0.9,0.7,1.5,0.7s1.2-0.2,1.5-0.7c0.4-0.4,0.5-1,0.5-1.7v-6.2h1.9v6.1c0,0.8-0.2,1.6-0.5,2.2c-0.3,0.6-0.8,1.1-1.4,1.5
			c-0.6,0.4-1.3,0.5-2.1,0.5S56.9,34.6,56.3,34.3z"/>
		<path class="st0" d="M64.3,24.4H68c0.7,0,1.2,0.1,1.8,0.4c0.5,0.3,0.9,0.7,1.2,1.1c0.3,0.5,0.4,1,0.4,1.6c0,0.7-0.2,1.2-0.6,1.7
			c-0.4,0.5-0.9,0.9-1.6,1.1l0,0.1l2.7,3.9v0.1h-2.2l-2.6-3.8h-0.9v3.8h-1.9V24.4z M68,29c0.4,0,0.8-0.1,1.1-0.4
			c0.3-0.3,0.4-0.6,0.4-1c0-0.4-0.1-0.7-0.4-1c-0.3-0.3-0.6-0.4-1.1-0.4h-1.8V29H68z"/>
		<path class="st0" d="M73.1,24.4h4c0.6,0,1.1,0.1,1.6,0.4c0.5,0.2,0.8,0.6,1.1,1c0.3,0.4,0.4,0.8,0.4,1.3c0,0.5-0.1,0.9-0.4,1.3
			c-0.3,0.4-0.6,0.7-1,0.9v0.1c0.5,0.2,0.9,0.5,1.3,0.9s0.5,0.9,0.5,1.5c0,0.6-0.1,1.1-0.4,1.5s-0.7,0.8-1.2,1
			c-0.5,0.2-1.1,0.3-1.7,0.3h-4.1L73.1,24.4L73.1,24.4z M77,28.6c0.4,0,0.8-0.1,1-0.3c0.3-0.2,0.4-0.5,0.4-0.9
			c0-0.3-0.1-0.6-0.4-0.9c-0.2-0.2-0.6-0.3-1-0.3h-2v2.4H77z M77.2,32.8c0.5,0,0.8-0.1,1.1-0.4c0.3-0.2,0.4-0.5,0.4-0.9
			s-0.1-0.7-0.4-0.9c-0.3-0.3-0.6-0.4-1.1-0.4H75v2.6L77.2,32.8L77.2,32.8z"/>
		<path class="st0" d="M84.9,24.4h2.2l3.8,10.1h-2.1l-0.8-2.4H84l-0.8,2.4h-2.1L84.9,24.4z M87.3,30.4l-0.9-2.5L86,26.6h-0.1
			l-0.4,1.2l-0.9,2.5H87.3z"/>
		<path class="st0" d="M92.1,24.4h2.2l4.1,6.8h0.1l-0.1-2v-4.8h1.9v10.1h-2L94,27.4h-0.1l0.1,2v5.2h-1.9L92.1,24.4L92.1,24.4z"/>
		<path class="st0" d="M104.4,34.1c-0.8-0.5-1.4-1.1-1.9-1.9c-0.5-0.8-0.7-1.7-0.7-2.7s0.2-1.9,0.7-2.7c0.5-0.8,1.1-1.5,1.9-1.9
			c0.8-0.5,1.7-0.7,2.7-0.7c1,0,1.9,0.2,2.7,0.7c0.8,0.5,1.4,1.1,1.9,1.9c0.5,0.8,0.7,1.7,0.7,2.7s-0.2,1.9-0.7,2.7
			c-0.5,0.8-1.1,1.5-1.9,1.9c-0.8,0.5-1.7,0.7-2.7,0.7C106.1,34.8,105.2,34.6,104.4,34.1z M108.8,32.5c0.5-0.3,0.9-0.7,1.2-1.2
			s0.4-1.1,0.4-1.8s-0.1-1.3-0.4-1.8c-0.3-0.5-0.7-0.9-1.2-1.2c-0.5-0.3-1.1-0.4-1.7-0.4c-0.6,0-1.2,0.1-1.7,0.4
			c-0.5,0.3-0.9,0.7-1.2,1.2c-0.3,0.5-0.4,1.1-0.4,1.8s0.1,1.3,0.4,1.8c0.3,0.5,0.7,0.9,1.2,1.2c0.5,0.3,1.1,0.4,1.7,0.4
			C107.8,33,108.3,32.8,108.8,32.5z"/>
		<path class="st0" d="M114.8,34.1c-0.7-0.5-1.2-1.2-1.4-2.1l1.8-0.7c0.1,0.5,0.4,1,0.7,1.3c0.3,0.3,0.8,0.5,1.3,0.5
			c0.4,0,0.8-0.1,1.1-0.3c0.3-0.2,0.5-0.5,0.5-0.9c0-0.4-0.1-0.7-0.4-0.9c-0.3-0.2-0.8-0.5-1.5-0.8l-0.6-0.2c-0.7-0.2-1.2-0.6-1.7-1
			c-0.5-0.5-0.7-1.1-0.7-1.8c0-0.5,0.1-1,0.4-1.4c0.3-0.4,0.7-0.8,1.2-1c0.5-0.3,1.1-0.4,1.7-0.4c0.9,0,1.6,0.2,2.2,0.6
			c0.5,0.4,0.9,0.9,1.1,1.5l-1.7,0.7c-0.1-0.3-0.3-0.6-0.5-0.8c-0.3-0.2-0.6-0.3-1-0.3c-0.4,0-0.8,0.1-1,0.3
			c-0.3,0.2-0.4,0.4-0.4,0.8c0,0.3,0.1,0.6,0.4,0.8c0.3,0.2,0.7,0.4,1.3,0.6l0.6,0.2c0.9,0.3,1.6,0.7,2,1.2c0.5,0.5,0.7,1.1,0.7,1.9
			c0,0.7-0.2,1.2-0.5,1.7c-0.3,0.5-0.8,0.8-1.3,1s-1.1,0.3-1.6,0.3C116.3,34.8,115.5,34.6,114.8,34.1z"/>
		<path class="st0" d="M125.5,24.4h2.5l2.7,7.1h0.1l2.7-7.1h2.5v10.1H134v-5l0.1-1.7H134l-2.6,6.7H130l-2.6-6.7h-0.1l0.1,1.7v5h-1.9
			L125.5,24.4L125.5,24.4z"/>
		<path class="st0" d="M138.1,34.3c-0.2-0.2-0.4-0.5-0.4-0.9c0-0.3,0.1-0.6,0.4-0.9s0.5-0.4,0.9-0.4s0.6,0.1,0.9,0.4
			c0.2,0.2,0.4,0.5,0.4,0.9s-0.1,0.6-0.4,0.9c-0.2,0.2-0.5,0.4-0.9,0.4S138.3,34.5,138.1,34.3z"/>
		<path class="st0" d="M142,24.4h6.4v1.8h-4.5v2.4h4.1v1.8h-4.1v2.4h4.5v1.8H142V24.4z"/>
	</g>
	<g>
		<g>
			<g>
				<path class="st1" d="M46.9,21.9c0-9.9-8.1-18-18-18c-9.9,0-18,8.1-18,18c0,6.3,3.3,11.9,8.2,15.1c0.1-0.6-0.1-1.2-0.6-1.6
					c-4.2-3.3-6.7-8.2-6.7-13.5c0-9.4,7.6-17,17-17s17,7.6,17,17c0,5.3-2.4,10.3-6.7,13.5c-0.5,0.4-0.7,1-0.6,1.6
					C43.6,33.8,46.9,28.2,46.9,21.9z"/>
				<path class="st1" d="M28.9,1.6c-11.2,0-20.3,9.1-20.3,20.3c0,6.4,2.9,12.2,7.9,16.1c0.3,0.2,0.6,0.3,1,0.3c0.5,0,1-0.2,1.3-0.6
					c0.1-0.2,0.2-0.4,0.3-0.5c-5-3.2-8.4-8.9-8.4-15.3c0-10,8.1-18.1,18.1-18.1c10,0,18.1,8.1,18.1,18.1c0,6.4-3.3,12-8.3,15.3
					c0.1,0.2,0.1,0.4,0.3,0.5c0.5,0.7,1.6,0.8,2.3,0.3c5-3.9,7.9-9.7,7.9-16.1C49.2,10.7,40.1,1.6,28.9,1.6z"/>
			</g>
			<g>
				<path class="st2" d="M13.5,29.2c-1.1-2.3-1.6-4.7-1.6-7.3c0-9.4,7.6-17,17-17c1.9,0,3.9,0.3,5.7,1c0.6,0.2,1.2,0,1.7-0.4
					c-2.2-1-4.7-1.6-7.3-1.6c-9.9,0-18,8.1-18,18c0,3.3,0.9,6.4,2.4,9C13.6,30.5,13.7,29.8,13.5,29.2z"/>
				<path class="st2" d="M10.7,21.9c0-10,8.1-18.1,18.1-18.1c2.7,0,5.2,0.6,7.4,1.6c0.1-0.1,0.2-0.3,0.3-0.5c0.3-0.9-0.1-1.8-1-2.1
					c-2.2-0.8-4.4-1.1-6.7-1.1c-11.2,0-20.3,9.1-20.3,20.3c0,3,0.7,6,2,8.7c0.3,0.6,0.9,0.9,1.5,0.9c0.2,0,0.5-0.1,0.7-0.2
					c0.2-0.1,0.4-0.2,0.5-0.4C11.6,28.4,10.7,25.2,10.7,21.9z"/>
			</g>
			<g>
				<path class="st3" d="M29.9,3.9c0.2,0.6,0.7,1,1.3,1.1c8.4,1.2,14.7,8.4,14.7,16.9c0,0.6,0.4,1.2,0.9,1.5c0-0.5,0.1-1,0.1-1.5
					C46.9,12.4,39.4,4.5,29.9,3.9z"/>
				<path class="st3" d="M31.7,1.8c-0.9-0.1-1.7,0.5-1.8,1.4c0,0.2,0,0.4,0,0.6C39.4,4.3,47,12.3,47,21.9c0,0.5,0,1-0.1,1.5
					c0.2,0.1,0.4,0.1,0.6,0.1c0.9,0,1.6-0.7,1.6-1.6C49.2,11.8,41.7,3.2,31.7,1.8z"/>
			</g>
		</g>
		<g>
			<g>
				<polygon class="st2" points="20.6,14.2 28.9,18.8 28.9,22.3 20.6,17.5 				"/>
			</g>
			<g>
				<polygon class="st1" points="37.1,14.2 28.9,18.8 28.9,22.3 37.1,17.5 				"/>
			</g>
			<g>
				<polygon class="st2" points="20.6,19.4 28.9,24 28.9,27.6 20.6,22.7 				"/>
			</g>
			<g>
				<polygon class="st1" points="37.1,19.4 28.9,24 28.9,27.6 37.1,22.7 				"/>
			</g>
			<g>
				<polygon class="st2" points="20.6,24.7 28.9,29.3 28.9,32.8 20.6,28 				"/>
			</g>
			<g>
				<polygon class="st1" points="37.1,24.7 28.9,29.3 28.9,32.8 37.1,28 				"/>
			</g>
			<g>
				<polygon class="st2" points="20.6,29.9 28.9,34.5 28.9,38.1 20.6,33.2 				"/>
			</g>
			<g>
				<polygon class="st1" points="37.1,29.9 28.9,34.5 28.9,38.1 37.1,33.2 				"/>
			</g>
			<g>
				<polygon class="st4" points="28.9,9 21.9,13.1 28.9,17.3 35.8,13.1 				"/>
			</g>
		</g>
		<path class="st5" d="M28.9,3.8c-10,0-18.1,8.1-18.1,18.1c0,6.4,3.3,12,8.3,15.3l0-0.1c-5-3.2-8.2-8.8-8.2-15.1c0-9.9,8.1-18,18-18
			c9.9,0,18,8.1,18,18c0,6.3-3.3,11.9-8.2,15.1l0,0.1c5-3.2,8.3-8.9,8.3-15.3C47,11.9,38.9,3.8,28.9,3.8z"/>
	</g>
</g>
</svg>
